<svg width="168" height="81" viewBox="0 0 168 81" fill="none"
  xmlns="http://www.w3.org/2000/svg">
  <path d="M87.0587 33.74C89.208 33.74 90.9587 34.2773 92.3107 35.352C93.6627 36.392 94.6333 38.056 95.2227 40.344C95.5347 40.1707 95.812 39.9453 96.0547 39.668C96.332 39.356 96.5573 39.044 96.7307 38.732C96.9387 38.3853 97.112 38.056 97.2507 37.744C97.3893 37.432 97.4933 37.172 97.5627 36.964H99.2267C99.088 37.484 98.9147 38.056 98.7067 38.68C98.5333 39.304 98.308 39.928 98.0307 40.552C97.788 41.1413 97.476 41.7133 97.0947 42.268C96.7133 42.8227 96.2453 43.308 95.6907 43.724C95.7253 44.0707 95.7427 44.4347 95.7427 44.816C95.7773 45.1627 95.7947 45.5267 95.7947 45.908C95.7947 47.9187 95.6213 49.808 95.2747 51.576C94.928 53.3093 94.3387 54.8347 93.5067 56.152C92.7093 57.4347 91.6693 58.4573 90.3867 59.22C89.104 59.948 87.5267 60.312 85.6547 60.312C84.372 60.312 83.1413 60.1213 81.9627 59.74C80.8187 59.324 79.796 58.6653 78.8947 57.764C77.9933 56.828 77.2653 55.6147 76.7107 54.124C76.1907 52.5987 75.9307 50.744 75.9307 48.56C75.9307 47.0693 76.0867 45.4747 76.3987 43.776C76.7107 42.0427 77.2827 40.4307 78.1147 38.94C78.9467 37.4493 80.0733 36.2187 81.4947 35.248C82.9507 34.2427 84.8053 33.74 87.0587 33.74ZM87.1107 55.424C87.8387 55.424 88.4627 55.1813 88.9827 54.696C89.5373 54.176 89.988 53.4827 90.3347 52.616C90.6813 51.7147 90.924 50.6573 91.0627 49.444C91.236 48.2307 91.3227 46.9133 91.3227 45.492V44.764C89.936 44.452 89.2427 43.4293 89.2427 41.696C89.2427 40.5867 89.6933 39.8587 90.5947 39.512C90.2133 38.4027 89.7453 37.692 89.1907 37.38C88.6707 37.0333 88.22 36.86 87.8387 36.86C87.076 36.86 86.4173 37.224 85.8627 37.952C85.3427 38.6453 84.9093 39.5467 84.5627 40.656C84.216 41.7307 83.956 42.9267 83.7827 44.244C83.644 45.5613 83.5747 46.8267 83.5747 48.04C83.5747 49.6 83.6787 50.8653 83.8867 51.836C84.1293 52.8067 84.424 53.552 84.7707 54.072C85.1173 54.592 85.4987 54.956 85.9147 55.164C86.3307 55.3373 86.7293 55.424 87.1107 55.424Z" fill="#2d8a2d"/>
  <path d="M69.3904 42.06C69.4597 41.7827 69.4944 41.54 69.4944 41.332C69.529 41.124 69.5464 40.8467 69.5464 40.5C69.5464 39.0787 69.3384 38.056 68.9224 37.432C68.541 36.808 68.0384 36.496 67.4144 36.496C66.721 36.496 66.1144 36.86 65.5944 37.588C65.109 38.2813 64.693 39.1827 64.3464 40.292C64.0344 41.3667 63.7917 42.58 63.6184 43.932C63.4797 45.284 63.4104 46.6013 63.4104 47.884C63.4104 49.5133 63.5144 50.848 63.7224 51.888C63.965 52.928 64.3117 53.7427 64.7624 54.332C65.213 54.9213 65.7677 55.3373 66.4264 55.58C67.1197 55.8227 67.8997 55.944 68.7664 55.944C69.8064 55.944 70.7077 55.8053 71.4704 55.528C72.2677 55.2507 72.9784 54.8867 73.6024 54.436C74.2264 53.9507 74.7984 53.396 75.3184 52.772C75.8384 52.1133 76.341 51.42 76.8264 50.692H78.5944C78.109 51.9053 77.5197 53.084 76.8264 54.228C76.1677 55.372 75.3357 56.3947 74.3304 57.296C73.3597 58.1973 72.1984 58.9253 70.8464 59.48C69.529 60.0347 67.9864 60.312 66.2184 60.312C64.7624 60.312 63.4104 60.104 62.1624 59.688C60.9144 59.2373 59.8224 58.544 58.8864 57.608C57.985 56.6373 57.2744 55.3893 56.7544 53.864C56.269 52.3387 56.0264 50.5013 56.0264 48.352C56.0264 46.896 56.165 45.3187 56.4424 43.62C56.7544 41.8867 57.309 40.292 58.1064 38.836C58.9037 37.38 59.9784 36.1667 61.3304 35.196C62.717 34.2253 64.5024 33.74 66.6864 33.74C68.0384 33.74 69.1477 33.9307 70.0144 34.312C70.9157 34.6933 71.6264 35.1787 72.1464 35.768C72.6664 36.3227 73.0304 36.9467 73.2384 37.64C73.4464 38.2987 73.5504 38.94 73.5504 39.564C73.5504 40.4653 73.3597 41.2107 72.9784 41.8C72.6317 42.3893 72.1464 42.684 71.5224 42.684C71.245 42.684 70.9157 42.632 70.5344 42.528C70.153 42.424 69.7717 42.268 69.3904 42.06Z" fill="#2d8a2d"/>
  <path d="M44.2501 33.74C46.6421 33.74 48.5487 34.3987 49.9701 35.716C51.3914 36.9987 52.3101 39.0787 52.7261 41.956H53.0901C53.5754 41.956 54.1127 41.8693 54.7021 41.696C55.3261 41.5227 55.9674 41.2973 56.6261 41.02C57.2847 40.7427 57.9261 40.4133 58.5501 40.032C59.1741 39.6507 59.7287 39.252 60.2141 38.836L60.9941 40.24C60.6127 40.7947 60.1274 41.2973 59.5381 41.748C58.9834 42.1987 58.3421 42.6147 57.6141 42.996C56.8861 43.3427 56.1234 43.6547 55.3261 43.932C54.5287 44.1747 53.7314 44.3653 52.9341 44.504C52.9687 44.7467 52.9861 44.9893 52.9861 45.232C52.9861 45.44 52.9861 45.6653 52.9861 45.908C52.9861 47.9187 52.8127 49.808 52.4661 51.576C52.1194 53.3093 51.5301 54.8347 50.6981 56.152C49.9007 57.4347 48.8607 58.4573 47.5781 59.22C46.2954 59.948 44.7181 60.312 42.8461 60.312C41.5634 60.312 40.3327 60.1213 39.1541 59.74C38.0101 59.324 36.9874 58.6653 36.0861 57.764C35.1847 56.828 34.4567 55.6147 33.9021 54.124C33.3821 52.5987 33.1221 50.744 33.1221 48.56C33.1221 47.0693 33.2781 45.4747 33.5901 43.776C33.9021 42.0427 34.4741 40.4307 35.3061 38.94C36.1381 37.4493 37.2647 36.2187 38.6861 35.248C40.1421 34.2427 41.9967 33.74 44.2501 33.74ZM44.3021 55.424C45.0301 55.424 45.6541 55.1813 46.1741 54.696C46.7287 54.176 47.1794 53.4827 47.5261 52.616C47.8727 51.7147 48.1154 50.6573 48.2541 49.444C48.4274 48.2307 48.5141 46.9133 48.5141 45.492V44.712C47.6474 44.5387 47.0927 44.2093 46.8501 43.724C46.6074 43.2387 46.4861 42.7013 46.4861 42.112C46.4861 41.384 46.6074 40.8293 46.8501 40.448C47.0927 40.0667 47.4047 39.8067 47.7861 39.668C47.4047 38.4893 46.9367 37.7267 46.3821 37.38C45.8621 37.0333 45.4114 36.86 45.0301 36.86C44.2674 36.86 43.6087 37.224 43.0541 37.952C42.5341 38.6453 42.1007 39.5467 41.7541 40.656C41.4074 41.7307 41.1474 42.9267 40.9741 44.244C40.8354 45.5613 40.7661 46.8267 40.7661 48.04C40.7661 49.6 40.8701 50.8653 41.0781 51.836C41.3207 52.8067 41.6154 53.552 41.9621 54.072C42.3087 54.592 42.6901 54.956 43.1061 55.164C43.5221 55.3373 43.9207 55.424 44.3021 55.424Z" fill="#2d8a2d"/>
  <path d="M26.5118 59.012C27.9331 59.324 29.3891 59.844 30.8798 60.572C32.4051 61.3 33.9651 62.0453 35.5598 62.808C37.1545 63.5707 38.7665 64.2293 40.3958 64.784C42.0598 65.3733 43.7238 65.668 45.3878 65.668C46.0465 65.668 46.7225 65.5987 47.4158 65.46C48.1091 65.356 48.8025 65.148 49.4958 64.836C49.5305 65.0093 49.5478 65.1653 49.5478 65.304C49.5478 65.4427 49.5478 65.5987 49.5478 65.772C49.5478 66.5693 49.4265 67.384 49.1838 68.216C48.9411 69.0827 48.5771 69.8627 48.0918 70.556C47.6411 71.2493 47.0518 71.8213 46.3238 72.272C45.5958 72.7573 44.7465 73 43.7758 73C42.6665 73 41.5225 72.7053 40.3438 72.116C39.1998 71.5267 38.0038 70.7987 36.7558 69.932C35.5078 69.0653 34.2251 68.112 32.9078 67.072C31.5905 66.0667 30.2385 65.1307 28.8518 64.264C27.4651 63.3973 26.0438 62.6693 24.5878 62.08C23.1318 61.4907 21.6585 61.196 20.1678 61.196C19.9598 61.196 19.7518 61.196 19.5438 61.196C19.3705 61.196 19.1798 61.2133 18.9718 61.248V25.264C17.3078 26.0613 16.0251 27.2227 15.1238 28.748C14.2571 30.2387 13.8238 32.0587 13.8238 34.208C13.8238 35.144 13.8931 35.9587 14.0318 36.652C14.2051 37.3107 14.3785 37.8653 14.5518 38.316C14.7598 38.7667 14.9678 39.148 15.1758 39.46C15.3838 39.7373 15.5398 39.9453 15.6438 40.084C13.5638 40.084 11.9171 39.5987 10.7038 38.628C9.49046 37.6573 8.88379 36.132 8.88379 34.052C8.88379 32.284 9.31712 30.6373 10.1838 29.112C11.0505 27.5867 12.1945 26.2693 13.6158 25.16C15.0718 24.016 16.7185 23.132 18.5558 22.508C20.4278 21.8493 22.3518 21.52 24.3278 21.52C24.7091 21.52 25.0731 21.5373 25.4198 21.572C25.8011 21.572 26.1651 21.5893 26.5118 21.624V59.012Z" fill="#2d8a2d"/>
  <path d="M151.32 60V33.73H157.351V60H151.32Z" fill="#B3B3B3"/>
  <path d="M131.627 60V33.73H137.658V54.709H149.017L148.647 60H131.627Z" fill="#B3B3B3"/>
  <path d="M129.641 54.857C128.556 56.633 127.063 58.002 125.164 58.964C123.265 59.9013 121.156 60.37 118.837 60.37C116 60.37 113.571 59.852 111.548 58.816C109.55 57.78 108.008 56.3 106.923 54.376C105.862 52.4273 105.332 50.0963 105.332 47.383C105.332 44.5957 105.924 42.1537 107.108 40.057C108.292 37.9603 109.932 36.32 112.029 35.136C114.15 33.952 116.592 33.36 119.355 33.36C121.772 33.36 123.807 33.804 125.46 34.692C127.137 35.58 128.543 36.9243 129.678 38.725L125.053 42.018C124.461 40.8833 123.647 40.057 122.611 39.539C121.575 39.021 120.465 38.762 119.281 38.762C117.727 38.762 116.37 39.1197 115.211 39.835C114.052 40.5503 113.139 41.5493 112.473 42.832C111.832 44.1147 111.511 45.5947 111.511 47.272C111.511 49.714 112.152 51.6133 113.435 52.97C114.718 54.3267 116.531 55.005 118.874 55.005C120.132 55.005 121.316 54.709 122.426 54.117C123.561 53.5003 124.473 52.5753 125.164 51.342L129.641 54.857Z" fill="#B3B3B3"/>
</svg>
