<svg width="1421" height="351" viewBox="0 0 1421 351" fill="none" xmlns="http://www.w3.org/2000/svg">
<rect x="139" y="90" width="1176" height="66" fill="#2DCC3D" fill-opacity="0.26"/>
<rect x="139" y="194" width="1176" height="66" fill="#FF0303" fill-opacity="0.21"/>
<path d="M1042.5 123H371.5" stroke="#2DCC3D" stroke-width="5" stroke-dasharray="20 20"/>
<path d="M1042.5 227H371.5" stroke="#FF0303" stroke-width="5" stroke-dasharray="20 20"/>
<rect x="1033" width="388" height="351" rx="35" fill="#C4C4C4"/>
<rect x="1033" width="388" height="334" rx="35" fill="#EDEDED"/>
<path d="M1133.54 82.9249V215.188C1137.48 216.051 1141.31 217.408 1145.01 219.258C1148.83 221.108 1152.72 222.958 1156.66 224.807C1160.61 226.657 1164.74 228.26 1169.06 229.617C1173.5 230.974 1178.31 231.652 1183.49 231.652C1187.81 231.652 1192.56 230.419 1197.74 227.952C1198.11 229.679 1198.29 231.343 1198.29 232.947C1198.29 235.536 1197.8 237.941 1196.81 240.161C1195.95 242.504 1194.59 244.539 1192.74 246.265C1191.01 247.992 1188.86 249.349 1186.27 250.335C1183.8 251.445 1181.02 252 1177.94 252C1173.13 252 1168.38 250.458 1163.69 247.375C1159.01 244.416 1154.26 241.086 1149.45 237.386C1144.64 233.81 1139.58 230.48 1134.28 227.397C1129.1 224.437 1123.54 222.958 1117.62 222.958C1116.88 222.958 1116.14 222.958 1115.4 222.958C1114.79 222.958 1114.11 223.019 1113.37 223.143V92.914C1105.1 95.2572 1098.57 99.2651 1093.76 104.938C1088.95 110.611 1086.54 117.702 1086.54 126.211C1086.54 129.541 1086.79 132.377 1087.28 134.72C1087.77 136.94 1088.39 138.913 1089.13 140.64C1089.87 142.243 1090.74 143.661 1091.72 144.894C1092.83 146.004 1093.94 147.053 1095.05 148.039C1087.65 148.039 1081.79 146.374 1077.48 143.045C1073.16 139.592 1071 133.795 1071 125.656C1071 119.737 1072.54 114.187 1075.63 109.008C1078.71 103.705 1082.78 99.0802 1087.84 95.1338C1093.02 91.0642 1098.88 87.8578 1105.41 85.5147C1112.07 83.1716 1118.92 82 1125.95 82C1127.31 82 1128.6 82.0617 1129.84 82.185C1131.19 82.185 1132.49 82.2466 1133.72 82.37L1133.54 82.9249Z" fill="#3DB63D"/>
<path d="M1193.87 125.471C1198.69 125.471 1202.82 126.211 1206.27 127.691C1209.72 129.171 1212.56 131.267 1214.78 133.98C1217 136.57 1218.73 139.653 1219.96 143.23C1221.32 146.806 1222.31 150.629 1222.92 154.699H1224.03C1229.21 154.699 1233.96 153.65 1238.28 151.554C1242.6 149.457 1246.3 146.806 1249.38 143.6L1252.16 148.594C1249.69 152.54 1245.74 155.808 1240.31 158.398C1235.01 160.988 1229.52 162.776 1223.85 163.763C1223.85 164.996 1223.85 166.229 1223.85 167.462C1223.97 168.696 1224.03 169.991 1224.03 171.347C1224.03 186.516 1221.26 198.416 1215.71 207.049C1210.16 215.682 1202.39 219.998 1192.39 219.998C1188.32 219.998 1184.19 219.258 1180 217.778C1175.93 216.298 1172.23 213.832 1168.9 210.379C1165.57 206.926 1162.85 202.486 1160.76 197.06C1158.78 191.634 1157.8 184.913 1157.8 176.897C1157.8 171.47 1158.35 165.736 1159.46 159.693C1160.69 153.65 1162.67 148.101 1165.38 143.045C1168.22 137.988 1171.92 133.795 1176.48 130.466C1181.17 127.136 1186.97 125.471 1193.87 125.471ZM1195.72 205.939C1202.26 205.939 1207.07 202.733 1210.16 196.32C1213.24 189.784 1214.78 180.596 1214.78 168.757C1214.78 168.017 1214.78 167.277 1214.78 166.538C1214.78 165.798 1214.72 165.058 1214.6 164.318C1211.02 164.071 1208.43 163.269 1206.83 161.913C1205.35 160.556 1204.61 158.275 1204.61 155.069C1204.61 152.232 1205.22 150.259 1206.46 149.149C1207.69 147.916 1209.54 147.238 1212.01 147.114C1210.53 142.798 1208.61 139.838 1206.27 138.235C1204.05 136.509 1201.52 135.645 1198.69 135.645C1194.86 135.645 1191.59 136.94 1188.88 139.53C1186.29 141.996 1184.13 145.203 1182.4 149.149C1180.8 153.095 1179.63 157.473 1178.89 162.283C1178.15 166.969 1177.78 171.594 1177.78 176.157C1177.78 182.199 1178.33 187.132 1179.44 190.955C1180.55 194.778 1181.97 197.8 1183.7 200.02C1185.43 202.239 1187.34 203.781 1189.43 204.644C1191.53 205.507 1193.63 205.939 1195.72 205.939Z" fill="#3DB63D"/>
<path d="M1279.53 154.699C1280.51 153.835 1281.25 152.479 1281.75 150.629C1282.36 148.656 1282.67 146.806 1282.67 145.079C1282.67 142.243 1281.75 139.9 1279.9 138.05C1278.17 136.2 1275.7 135.275 1272.5 135.275C1269.17 135.275 1266.39 136.509 1264.17 138.975C1261.95 141.441 1260.16 144.586 1258.81 148.409C1257.45 152.109 1256.46 156.302 1255.85 160.988C1255.35 165.551 1255.11 170.052 1255.11 174.492C1255.11 181.028 1255.66 186.331 1256.77 190.4C1258 194.47 1259.61 197.676 1261.58 200.02C1263.55 202.239 1265.84 203.781 1268.43 204.644C1271.14 205.507 1273.98 205.939 1276.94 205.939C1283.47 205.939 1288.96 204.336 1293.4 201.129C1297.97 197.8 1301.85 192.682 1305.06 185.776H1311.35C1309.87 190.339 1307.77 194.717 1305.06 198.91C1302.35 202.979 1299.2 206.617 1295.62 209.824C1292.05 212.907 1288.16 215.373 1283.97 217.223C1279.77 219.073 1275.4 219.998 1270.83 219.998C1266.51 219.998 1262.26 219.258 1258.07 217.778C1253.87 216.298 1250.11 213.893 1246.78 210.564C1243.45 207.111 1240.74 202.671 1238.64 197.245C1236.54 191.695 1235.49 184.913 1235.49 176.897C1235.49 171.717 1235.93 166.168 1236.79 160.248C1237.78 154.205 1239.5 148.656 1241.97 143.6C1244.56 138.42 1248.07 134.104 1252.52 130.651C1256.96 127.198 1262.69 125.471 1269.72 125.471C1277.49 125.471 1283.41 127.383 1287.48 131.206C1291.55 134.905 1293.59 140.393 1293.59 147.669C1293.59 150.752 1292.97 153.342 1291.74 155.439C1290.63 157.535 1288.84 158.583 1286.37 158.583C1283.66 158.583 1281.38 157.288 1279.53 154.699Z" fill="#3DB63D"/>
<path d="M1338.78 125.471C1343.1 125.471 1346.86 126.088 1350.07 127.321C1353.27 128.554 1355.99 130.281 1358.21 132.501C1360.55 134.597 1362.4 137.187 1363.76 140.27C1365.24 143.23 1366.35 146.436 1367.09 149.889C1370.54 149.889 1373.01 148.841 1374.49 146.744C1375.97 144.524 1377.02 142.49 1377.63 140.64H1383C1382.01 144.709 1380.35 148.902 1378 153.219C1375.78 157.412 1372.64 160.556 1368.57 162.653C1368.82 164.133 1368.94 165.613 1368.94 167.092C1368.94 168.449 1368.94 169.867 1368.94 171.347C1368.94 186.516 1366.16 198.416 1360.61 207.049C1355.06 215.682 1347.29 219.998 1337.3 219.998C1333.23 219.998 1329.1 219.258 1324.9 217.778C1320.83 216.298 1317.13 213.832 1313.8 210.379C1310.47 206.926 1307.76 202.486 1305.66 197.06C1303.69 191.634 1302.7 184.913 1302.7 176.897C1302.7 171.47 1303.26 165.736 1304.37 159.693C1305.6 153.65 1307.57 148.101 1310.29 143.045C1313.13 137.988 1316.83 133.795 1321.39 130.466C1326.08 127.136 1331.87 125.471 1338.78 125.471ZM1340.63 205.939C1347.17 205.939 1351.98 202.733 1355.06 196.32C1358.15 189.784 1359.69 180.596 1359.69 168.757C1359.69 168.141 1359.63 167.524 1359.5 166.907C1359.5 166.168 1359.5 165.489 1359.5 164.873C1356.05 164.873 1353.52 163.948 1351.92 162.098C1350.31 160.125 1349.51 157.35 1349.51 153.774C1349.51 151.307 1350.13 149.396 1351.36 148.039C1352.6 146.559 1354.26 145.696 1356.36 145.449C1354.88 141.873 1353.03 139.345 1350.81 137.865C1348.59 136.385 1346.18 135.645 1343.59 135.645C1339.77 135.645 1336.5 136.94 1333.79 139.53C1331.2 141.996 1329.04 145.203 1327.31 149.149C1325.71 153.095 1324.53 157.473 1323.79 162.283C1323.05 166.969 1322.68 171.594 1322.68 176.157C1322.68 182.199 1323.24 187.132 1324.35 190.955C1325.46 194.778 1326.88 197.8 1328.6 200.02C1330.33 202.239 1332.24 203.781 1334.34 204.644C1336.44 205.507 1338.53 205.939 1340.63 205.939Z" fill="#3DB63D"/>
<rect width="388" height="351" rx="35" fill="#2C3E50"/>
<rect width="388" height="334" rx="35" fill="#34495E"/>
<path d="M43.8654 36L109.044 76.1193V90.6467L44.7129 130.766L37 120.293L96.8388 83.4674L37 46.7266L43.8654 36Z" fill="#E5E9EB"/>
<path d="M132.243 167V154.584H217V167H132.243Z" fill="#E5E9EB"/>
</svg>
